<?xml version="1.0" standalone="no"?>
<!DOCTYPE svg PUBLIC "-//W3C//DTD SVG 20010904//EN"
 "http://www.w3.org/TR/2001/REC-SVG-20010904/DTD/svg10.dtd">
<svg version="1.0" xmlns="http://www.w3.org/2000/svg"
 width="399.000000pt" height="399.000000pt" viewBox="0 0 399.000000 399.000000"
 preserveAspectRatio="xMidYMid meet">

<g transform="translate(0.000000,399.000000) scale(0.100000,-0.100000)"
fill="#000000" stroke="none">
<path d="M0 1995 l0 -1995 1995 0 1995 0 0 1995 0 1995 -1995 0 -1995 0 0
-1995z m1848 1199 l-1 -387 -39 -49 c-44 -56 -115 -104 -233 -159 -74 -35
-109 -61 -130 -98 -5 -9 -4 -12 3 -7 7 4 10 -1 9 -14 -1 -11 -4 -20 -7 -20 -3
0 -11 -9 -18 -21 -10 -15 -10 -19 -1 -14 8 5 10 4 5 -3 -11 -19 -51 -14 -111
13 -31 13 -61 22 -69 19 -8 -3 -12 -22 -12 -54 1 -39 7 -54 26 -72 13 -13 73
-68 132 -124 79 -75 121 -107 162 -124 l56 -22 0 -237 c0 -135 -4 -242 -10
-251 -12 -19 -12 -29 -15 241 -1 119 -6 222 -9 228 -4 7 -16 9 -26 6 -33 -11
-166 72 -239 149 -44 46 -55 46 -46 -1 7 -34 10 -63 19 -178 1 -17 5 -35 9
-42 4 -6 1 -13 -6 -16 -13 -5 -16 -45 -4 -64 4 -6 0 -16 -7 -23 -17 -13 -17
-51 -1 -62 6 -5 3 -8 -7 -8 -28 0 -21 -16 14 -33 l33 -16 -26 -9 c-31 -12 -99
-1 -134 22 -28 19 -32 43 -10 72 8 10 15 28 15 39 0 11 7 30 15 41 8 12 11 24
8 28 -3 3 0 6 8 6 11 0 11 2 -1 10 -13 8 -13 10 2 10 13 0 16 8 14 38 -2 20 2
43 8 51 13 17 17 43 6 36 -5 -3 -5 8 1 24 7 20 7 36 0 49 -6 11 -6 23 -1 28
19 20 11 134 -10 134 -5 0 -11 -14 -15 -31 -7 -32 -26 -35 -31 -4 -2 11 -7 28
-13 40 -52 106 -99 217 -127 300 -39 119 -69 292 -52 312 21 26 35 12 53 -54
38 -149 133 -236 278 -257 48 -6 48 -6 -37 108 -36 49 -66 98 -66 110 0 14 31
48 91 101 50 44 136 130 191 190 98 106 102 110 139 107 l37 -4 89 166 c48 91
89 166 91 166 1 0 1 -174 0 -386z m211 65 c51 -32 59 -45 66 -100 2 -16 7 -34
11 -40 3 -6 8 -38 9 -70 3 -68 19 -96 43 -77 13 10 14 10 8 1 -4 -8 -2 -13 4
-13 6 0 8 -5 5 -10 -4 -6 -3 -9 2 -8 4 1 32 -10 61 -26 30 -15 56 -25 59 -22
7 7 49 -46 46 -56 -2 -4 8 -10 22 -14 25 -6 29 -13 25 -48 -2 -19 -52 -108
-79 -140 -15 -17 -14 -18 44 -11 175 22 268 87 321 225 29 75 49 107 58 92 7
-12 -19 -129 -47 -207 -14 -38 -32 -106 -42 -150 -9 -44 -37 -143 -62 -220
-25 -77 -47 -165 -49 -195 -11 -145 -10 -180 2 -242 8 -37 18 -79 24 -93 5
-14 10 -30 10 -36 0 -5 -57 -38 -127 -73 -71 -35 -156 -85 -190 -110 -51 -37
-63 -43 -65 -28 -7 75 -20 145 -35 186 -11 32 -11 41 -1 48 9 5 9 8 1 8 -6 0
-10 8 -9 18 2 9 -4 23 -13 30 -9 8 -10 11 -3 7 13 -7 13 0 -6 83 -5 23 -7 42
-4 42 3 0 -3 6 -13 14 -18 13 -17 15 21 34 121 64 241 176 284 268 59 123 39
139 -97 74 -56 -27 -134 -60 -173 -74 l-71 -26 2 33 c2 17 -3 42 -9 53 -6 12
-8 24 -5 28 3 3 -2 6 -13 7 -18 0 -18 1 1 9 18 8 18 9 2 9 -12 1 -16 5 -10 13
4 7 6 25 4 40 -2 21 2 28 16 28 15 0 16 2 3 10 -10 6 -11 10 -2 10 6 0 12 11
12 25 0 14 -5 25 -11 25 -5 0 -7 5 -4 10 3 6 -1 10 -9 10 -8 0 -24 10 -36 22
-11 12 -20 19 -20 16 0 -4 -10 2 -22 12 -109 90 -123 106 -109 128 5 8 23 0
61 -25 30 -20 57 -39 60 -42 15 -18 211 -91 242 -91 18 1 12 6 -22 23 -25 12
-55 33 -67 47 -25 31 -111 79 -162 92 -20 5 -43 10 -51 12 -26 6 -80 63 -75
78 2 7 9 47 14 88 5 41 12 85 15 97 2 11 8 42 11 67 4 25 11 46 16 46 5 0 9 7
9 15 0 8 9 24 20 35 11 11 20 26 20 34 0 8 6 17 13 19 6 3 13 6 14 6 1 1 24
-13 52 -30z m661 -309 c0 -5 -4 -10 -10 -10 -5 0 -10 -7 -10 -16 0 -11 -5 -14
-16 -10 -14 5 -15 4 -4 -9 11 -13 9 -15 -13 -15 -14 0 -29 5 -32 10 -3 6 -1
10 5 10 7 0 8 6 1 19 -6 10 -7 21 -4 25 10 10 83 7 83 -4z m-70 -130 c-6 -11
-13 -20 -16 -20 -2 0 0 9 6 20 6 11 13 20 16 20 2 0 0 -9 -6 -20z m-729 -763
c-3 -189 -2 -220 13 -252 23 -48 14 -55 -14 -11 -20 34 -21 44 -18 261 2 145
6 224 13 222 6 -3 9 -80 6 -220z m-34 51 c-3 -8 -6 -5 -6 6 -1 11 2 17 5 13 3
-3 4 -12 1 -19z m198 -88 c-3 -5 -11 -10 -16 -10 -6 0 -7 5 -4 10 3 6 11 10
16 10 6 0 7 -4 4 -10z m233 -434 c-17 -55 22 -119 172 -286 71 -80 130 -149
130 -154 0 -15 -81 -115 -109 -135 -27 -19 -107 -18 -95 0 3 5 -1 9 -8 9 -7 0
-26 17 -43 37 -16 20 -45 51 -62 69 -18 18 -33 37 -33 43 0 6 -9 16 -20 23
-11 7 -20 19 -20 27 0 7 -13 29 -30 48 -16 18 -30 38 -30 44 0 6 -4 7 -10 4
-5 -3 -10 1 -10 10 0 9 -4 14 -8 11 -5 -3 -23 10 -41 28 l-32 33 35 29 c19 16
75 66 125 112 50 45 93 82 95 82 2 0 -1 -15 -6 -34z m-704 -51 c-4 -8 -8 -15
-10 -15 -2 0 -4 7 -4 15 0 8 4 15 10 15 5 0 7 -7 4 -15z m-144 -159 c19 -40
19 -40 0 -61 -11 -12 -20 -27 -20 -33 0 -13 -109 -122 -122 -122 -4 0 -33 -21
-64 -46 -41 -34 -62 -44 -78 -40 -25 6 -76 50 -76 65 0 14 60 83 176 204 57
59 104 113 104 119 0 20 59 -43 80 -86z"/>
<path d="M1221 2364 c0 -11 3 -14 6 -6 3 7 2 16 -1 19 -3 4 -6 -2 -5 -13z"/>
</g>
</svg>
